<svg width="25" height="16" viewBox="0 0 25 16" fill="none" xmlns="http://www.w3.org/2000/svg">
<path d="M0 3.02083V1.20833H6.04167V3.02083H0ZM0 9.36458V7.55208H6.04167V9.36458H0ZM22.8979 15.7083L18.0646 10.875C17.541 11.2778 16.9771 11.5799 16.3729 11.7813C15.7688 11.9826 15.1444 12.0833 14.5 12.0833C12.8285 12.0833 11.4036 11.4943 10.2255 10.3161C9.0474 9.13802 8.45833 7.71319 8.45833 6.04167C8.45833 4.37014 9.0474 2.94531 10.2255 1.76719C11.4036 0.589063 12.8285 0 14.5 0C16.1715 0 17.5964 0.589063 18.7745 1.76719C19.9526 2.94531 20.5417 4.37014 20.5417 6.04167C20.5417 6.68611 20.441 7.31042 20.2396 7.91458C20.0382 8.51875 19.7361 9.08264 19.3333 9.60625L24.1667 14.4396L22.8979 15.7083ZM14.5 10.2708C15.6681 10.2708 16.6649 9.85799 17.4906 9.03229C18.3163 8.2066 18.7292 7.20972 18.7292 6.04167C18.7292 4.87361 18.3163 3.87674 17.4906 3.05104C16.6649 2.22535 15.6681 1.8125 14.5 1.8125C13.3319 1.8125 12.3351 2.22535 11.5094 3.05104C10.6837 3.87674 10.2708 4.87361 10.2708 6.04167C10.2708 7.20972 10.6837 8.2066 11.5094 9.03229C12.3351 9.85799 13.3319 10.2708 14.5 10.2708ZM0 15.7083V13.8958H12.0833V15.7083H0Z" fill="#888888"/>
</svg>
