<svg width="28" height="5" viewBox="0 0 28 5" fill="none" xmlns="http://www.w3.org/2000/svg">
<path d="M2.1 4.2C1.51667 4.2 1.02083 3.99583 0.6125 3.5875C0.204166 3.17917 0 2.68333 0 2.1C0 1.51667 0.204166 1.02083 0.6125 0.612499C1.02083 0.204166 1.51667 0 2.1 0C2.68333 0 3.17917 0.204166 3.5875 0.612499C3.99583 1.02083 4.2 1.51667 4.2 2.1C4.2 2.68333 3.99583 3.17917 3.5875 3.5875C3.17917 3.99583 2.68333 4.2 2.1 4.2ZM14 4.2C13.4167 4.2 12.9208 3.99583 12.5125 3.5875C12.1042 3.17917 11.9 2.68333 11.9 2.1C11.9 1.51667 12.1042 1.02083 12.5125 0.612499C12.9208 0.204166 13.4167 0 14 0C14.5833 0 15.0792 0.204166 15.4875 0.612499C15.8958 1.02083 16.1 1.51667 16.1 2.1C16.1 2.68333 15.8958 3.17917 15.4875 3.5875C15.0792 3.99583 14.5833 4.2 14 4.2ZM25.9 4.2C25.3167 4.2 24.8208 3.99583 24.4125 3.5875C24.0042 3.17917 23.8 2.68333 23.8 2.1C23.8 1.51667 24.0042 1.02083 24.4125 0.612499C24.8208 0.204166 25.3167 0 25.9 0C26.4833 0 26.9792 0.204166 27.3875 0.612499C27.7958 1.02083 28 1.51667 28 2.1C28 2.68333 27.7958 3.17917 27.3875 3.5875C26.9792 3.99583 26.4833 4.2 25.9 4.2Z" fill="#888888"/>
</svg>
