<svg width="21" height="19" viewBox="0 0 21 19" fill="none" xmlns="http://www.w3.org/2000/svg">
<path d="M10.5 19L9.42375 18.0409C6.57125 15.4661 4.2875 13.2196 2.5725 11.3015C0.8575 9.38335 0 7.43929 0 5.4693C0 3.91405 0.529375 2.61369 1.58812 1.56821C2.64687 0.522737 3.955 0 5.5125 0C6.405 0 7.28875 0.211687 8.16375 0.635061C9.03875 1.05844 9.8175 1.75398 10.5 2.72169C11.27 1.75398 12.0662 1.05844 12.8887 0.635061C13.7112 0.211687 14.5775 0 15.4875 0C17.045 0 18.3531 0.522737 19.4119 1.56821C20.4706 2.61369 21 3.91405 21 5.4693C21 7.43929 20.1425 9.38335 18.4275 11.3015C16.7125 13.2196 14.4287 15.4661 11.5762 18.0409L10.5 19ZM10.5 16.9522C13.16 14.533 15.3125 12.4334 16.9575 10.6535C18.6025 8.87358 19.425 7.14552 19.425 5.4693C19.425 4.32879 19.0531 3.39131 18.3094 2.65689C17.5656 1.92246 16.625 1.55525 15.4875 1.55525C14.6125 1.55525 13.79 1.8231 13.02 2.3588C12.25 2.8945 11.62 3.66348 11.13 4.66576H9.84375C9.37125 3.66348 8.74562 2.8945 7.96687 2.3588C7.18812 1.8231 6.37 1.55525 5.5125 1.55525C4.3575 1.55525 3.4125 1.92246 2.6775 2.65689C1.9425 3.39131 1.575 4.32879 1.575 5.4693C1.575 7.14552 2.3975 8.87358 4.0425 10.6535C5.6875 12.4334 7.84 14.533 10.5 16.9522Z" fill="#888888"/>
</svg>
